<?xml version="1.0" standalone="no"?>
<!DOCTYPE svg PUBLIC "-//W3C//DTD SVG 20010904//EN"
 "http://www.w3.org/TR/2001/REC-SVG-20010904/DTD/svg10.dtd">
<svg version="1.0" xmlns="http://www.w3.org/2000/svg"
 width="370.000000pt" height="338.000000pt" viewBox="0 0 370.000000 338.000000"
 preserveAspectRatio="xMidYMid meet">
<metadata>
Created by potrace 1.16, written by Peter Selinger 2001-2019
</metadata>
<g transform="translate(0.000000,338.000000) scale(0.100000,-0.100000)"
fill="#000000" stroke="none">
<path d="M1719 3266 c-2 -2 -29 -7 -59 -10 -340 -32 -727 -234 -970 -505 -188
-210 -331 -491 -379 -746 -26 -141 -29 -178 -29 -320 0 -157 12 -247 53 -405
111 -429 417 -803 820 -1003 123 -61 277 -115 380 -133 17 -3 46 -9 65 -14 19
-5 86 -12 148 -16 l112 -7 0 24 c0 16 -8 28 -22 34 -31 14 -38 65 -9 65 12 0
21 -8 24 -22 4 -20 4 -19 6 5 0 15 -3 27 -9 27 -5 0 -10 7 -10 15 0 8 5 15 10
15 6 0 9 10 9 23 -1 16 -2 18 -6 5 -2 -10 -13 -18 -24 -18 -29 0 -24 38 6 52
14 6 25 19 25 30 0 15 -8 18 -52 18 -73 0 -217 25 -320 54 -198 58 -401 179
-553 331 -180 181 -300 400 -356 655 -34 150 -34 390 0 540 23 107 69 237 114
327 77 151 248 355 371 443 l49 35 -47 3 c-55 4 -60 21 -21 82 26 41 32 70 15
70 -5 0 -10 -7 -10 -15 0 -8 -9 -15 -20 -15 -14 0 -18 5 -13 18 11 29 25 42
47 42 48 0 61 -52 26 -105 -25 -38 -25 -45 0 -45 11 0 20 -7 20 -15 0 -8 2
-15 3 -15 2 0 40 22 85 49 175 105 434 181 618 181 l44 0 0 83 0 82 -24 -40
c-24 -38 -24 -40 -5 -43 10 -2 19 -10 19 -18 0 -10 -13 -14 -45 -14 -54 0 -55
7 -15 75 32 54 35 65 20 65 -5 0 -10 -7 -10 -15 0 -8 -9 -15 -20 -15 -13 0
-20 7 -20 18 0 40 54 57 84 26 15 -14 16 -12 16 25 l0 41 -68 0 c-38 0 -71 -2
-73 -4z m-1204 -1940 c15 -11 20 -28 21 -77 3 -71 -6 -89 -45 -89 -44 0 -50
10 -49 88 0 56 4 75 17 82 22 13 34 12 56 -4z m979 -932 c19 -19 22 -134 4
-152 -15 -15 -61 -15 -76 0 -18 18 -14 38 8 38 11 0 20 -4 20 -10 0 -5 5 -10
10 -10 6 0 10 8 10 18 0 13 -8 18 -27 17 -26 0 -28 3 -31 45 -3 33 1 47 14 57
24 17 49 16 68 -3z"/>
<path d="M1870 3235 c0 -30 3 -36 12 -27 7 7 24 12 38 12 40 0 50 -18 50 -86
0 -74 -17 -99 -59 -89 -14 4 -29 12 -33 18 -4 7 -8 -4 -8 -24 l0 -36 88 -6
c224 -16 444 -92 637 -218 101 -66 286 -250 352 -349 102 -152 167 -307 204
-483 31 -144 31 -370 0 -514 -37 -176 -103 -332 -204 -483 -67 -100 -252 -284
-352 -349 -196 -128 -411 -202 -635 -218 -86 -6 -90 -7 -90 -29 0 -14 6 -24
14 -24 18 0 23 -19 25 -92 1 -48 -2 -60 -19 -70 -11 -7 -20 -24 -20 -37 l0
-24 106 7 c550 34 1059 374 1303 871 70 142 116 271 137 385 2 14 10 50 16 80
15 71 15 408 0 480 -6 30 -14 66 -16 80 -34 182 -143 430 -264 599 -218 306
-539 521 -928 621 -88 22 -109 25 -256 36 l-98 7 0 -38z m918 -297 c5 -7 10
-44 10 -81 1 -63 -1 -69 -23 -79 -19 -8 -31 -8 -50 0 -23 11 -24 16 -23 79 2
78 10 93 48 93 15 0 32 -6 38 -12z m553 -1168 c25 -14 25 -40 -1 -40 -11 0
-20 5 -20 10 0 6 -4 10 -10 10 -5 0 -10 -9 -10 -20 0 -13 5 -18 15 -14 42 16
66 -84 26 -106 -56 -29 -83 -3 -83 82 0 48 4 65 18 75 22 16 39 16 65 3z m-20
-451 c18 -18 21 -30 17 -81 -5 -62 -15 -78 -53 -78 -35 0 -45 20 -45 92 0 53
4 69 18 77 26 15 40 13 63 -10z"/>
<path d="M1718 2983 c-43 -4 -48 -7 -48 -28 l0 -25 138 3 c75 1 162 0 192 -3
53 -4 55 -3 55 20 0 22 -5 26 -50 32 -52 7 -206 7 -287 1z"/>
<path d="M1545 2886 c-73 -19 -217 -75 -232 -90 -3 -2 37 -86 87 -186 76 -152
94 -181 108 -174 50 22 180 64 201 64 19 0 22 4 18 23 -3 12 -18 104 -33 205
-23 145 -31 182 -44 182 -8 -1 -55 -11 -105 -24z"/>
<path d="M2030 2710 c-17 -111 -30 -203 -28 -204 1 -1 28 -8 58 -15 30 -6 82
-23 114 -36 33 -13 61 -23 62 -22 10 13 185 359 183 361 -28 25 -235 98 -315
111 l-41 6 -33 -201z"/>
<path d="M1180 2795 c-77 -48 -182 -128 -214 -164 -18 -20 -18 -23 -4 -37 15
-15 23 -11 95 48 43 35 113 85 155 112 68 42 76 50 67 67 -5 10 -13 19 -17 19
-4 0 -41 -20 -82 -45z"/>
<path d="M2446 2824 c-10 -25 -7 -32 14 -39 32 -10 162 -99 224 -154 56 -50
59 -51 78 -34 19 17 18 18 -29 60 -59 53 -249 183 -267 183 -8 0 -17 -7 -20
-16z"/>
<path d="M939 2513 c-93 -100 -185 -246 -166 -261 7 -5 89 -48 184 -96 l171
-85 27 45 c14 25 47 70 72 101 l45 56 -144 144 -144 144 -45 -48z"/>
<path d="M2601 2416 l-144 -145 35 -43 c19 -24 52 -69 72 -101 l37 -58 180 93
c98 51 179 97 179 103 0 19 -115 187 -167 243 l-48 53 -144 -145z"/>
<path d="M1640 2411 c-77 -26 -111 -43 -108 -55 2 -6 63 -129 136 -274 117
-231 151 -286 167 -271 3 4 -76 521 -91 592 -7 32 -25 34 -104 8z"/>
<path d="M1985 2418 c-4 -13 -95 -587 -95 -600 0 -5 6 -8 14 -8 9 0 71 110
155 274 78 151 141 276 141 279 0 11 -165 67 -198 67 -7 0 -14 -6 -17 -12z"/>
<path d="M684 2239 c-28 -56 -65 -161 -85 -247 -17 -69 -18 -86 -7 -93 28 -18
37 -7 53 69 9 42 35 124 57 181 33 84 38 105 27 112 -22 14 -27 11 -45 -22z"/>
<path d="M2998 2260 c-15 -9 -14 -16 13 -75 26 -57 66 -185 83 -267 6 -28 20
-34 44 -20 10 7 7 29 -12 104 -27 106 -86 260 -101 264 -6 2 -18 -1 -27 -6z"/>
<path d="M1303 2198 c-34 -37 -103 -140 -103 -154 0 -19 547 -291 559 -279 7
7 -59 80 -212 233 l-223 223 -21 -23z"/>
<path d="M2184 1998 c-125 -126 -220 -229 -217 -236 3 -9 92 32 284 130 153
79 279 147 279 151 0 11 -61 102 -97 145 l-28 32 -221 -222z"/>
<path d="M636 1858 c-17 -84 -15 -317 3 -346 4 -6 80 2 204 21 l197 31 0 126
0 126 -182 28 c-101 15 -191 29 -200 32 -12 4 -19 -2 -22 -18z"/>
<path d="M2876 1846 l-188 -31 0 -125 0 -125 198 -32 c110 -17 201 -29 204
-26 8 8 13 281 5 329 -3 25 -11 43 -18 43 -7 -1 -97 -16 -201 -33z"/>
<path d="M1117 1793 c-13 -13 -8 -203 6 -208 7 -3 147 16 312 43 236 37 300
51 300 62 0 12 -56 24 -260 56 -332 53 -350 56 -358 47z"/>
<path d="M2277 1752 c-237 -38 -287 -49 -285 -62 3 -12 69 -25 306 -63 167
-27 306 -46 310 -42 10 9 15 140 8 180 -6 28 -11 35 -29 34 -12 -1 -152 -22
-310 -47z"/>
<path d="M1967 1617 c-3 -9 80 -99 217 -236 l222 -222 45 58 c51 65 85 120 78
126 -2 2 -128 68 -280 146 -202 103 -278 138 -282 128z"/>
<path d="M1471 1485 c-144 -73 -266 -136 -269 -140 -9 -9 23 -63 75 -130 l45
-58 224 224 c122 122 221 226 218 231 -3 4 -11 8 -17 8 -7 0 -131 -61 -276
-135z"/>
<path d="M1787 1528 c-13 -24 -77 -148 -142 -277 -92 -183 -114 -235 -104
-242 25 -16 119 -49 158 -55 37 -6 39 -5 45 22 8 37 84 519 88 558 5 44 -17
42 -45 -6z"/>
<path d="M1890 1563 c0 -32 95 -600 101 -607 13 -14 183 35 207 59 9 8 -281
555 -294 555 -8 0 -14 -3 -14 -7z"/>
<path d="M591 1481 c-11 -7 -9 -26 12 -110 27 -105 85 -252 102 -258 6 -1 16
1 24 6 11 7 7 25 -23 99 -20 50 -46 131 -57 181 -21 88 -29 100 -58 82z"/>
<path d="M3094 1463 c-17 -83 -57 -211 -83 -268 -29 -64 -30 -65 -9 -76 26
-14 31 -9 68 85 47 117 84 268 68 278 -24 14 -38 8 -44 -19z"/>
<path d="M943 1217 l-182 -92 29 -53 c36 -66 118 -177 162 -219 l34 -33 143
144 143 144 -45 55 c-25 31 -58 77 -72 102 -15 25 -28 45 -28 44 -1 0 -84 -41
-184 -92z"/>
<path d="M2579 1273 c-13 -21 -46 -67 -72 -102 l-49 -63 143 -145 144 -144 48
53 c53 58 167 224 167 243 0 7 -81 53 -179 104 l-179 91 -23 -37z"/>
<path d="M1399 769 c-50 -100 -87 -185 -82 -189 29 -27 336 -123 347 -109 3 4
57 352 60 382 1 15 -15 24 -82 43 -46 13 -97 31 -112 39 -16 8 -31 15 -34 15
-3 0 -47 -82 -97 -181z"/>
<path d="M2170 924 c-30 -13 -81 -29 -112 -36 -32 -6 -58 -16 -58 -21 0 -16
62 -392 65 -395 16 -16 316 81 354 114 4 4 -183 364 -189 363 -3 -1 -30 -12
-60 -25z"/>
<path d="M960 785 c-16 -19 -2 -36 86 -106 61 -48 201 -139 216 -139 4 0 12 9
18 20 9 17 2 24 -58 60 -38 22 -108 72 -155 110 -48 39 -88 70 -90 70 -3 0
-10 -7 -17 -15z"/>
<path d="M2684 749 c-33 -28 -93 -73 -134 -100 -113 -72 -112 -72 -105 -91 4
-10 13 -18 20 -18 17 0 211 131 268 182 48 43 49 43 29 61 -19 18 -21 17 -78
-34z"/>
<path d="M1670 424 c0 -19 7 -22 68 -27 37 -4 94 -7 127 -7 33 0 90 3 128 7
60 5 67 8 67 27 0 21 -2 22 -195 22 -193 0 -195 -1 -195 -22z"/>
</g>
</svg>
